<svg width="37" height="34" viewBox="0 0 37 34" fill="none" xmlns="http://www.w3.org/2000/svg">
<path fill-rule="evenodd" clip-rule="evenodd" d="M32.0377 33.6685H21.2108C15.7835 33.6685 11.1316 30.2465 9.35932 25.4445C3.98741 24.1475 0 19.318 0 13.5502V12.2255C0 5.49182 5.51037 0 12.2668 0H31.7054C34.5575 0 36.8558 2.29056 36.8558 5.13307C36.8558 7.97558 34.5575 10.2937 31.7054 10.2937H21.2108C15.202 10.2937 10.3285 15.1508 10.3285 21.1118C10.3285 22.1053 10.4669 23.0436 10.7162 23.9543C11.2145 24.0279 11.7314 24.0647 12.2668 24.0647H32.0377C34.696 24.0647 36.8558 26.2448 36.8558 28.8666C36.8558 31.5159 34.696 33.6685 32.0377 33.6685ZM11.3807 25.7757C13.1252 29.4186 16.8634 31.9575 21.2108 31.9575H32.0377C33.7545 31.9575 35.139 30.5776 35.139 28.8666C35.139 27.1832 33.7545 25.8034 32.0377 25.8034H12.2668C11.9714 25.8034 11.6761 25.7942 11.3807 25.7757ZM12.2668 1.71102C6.45184 1.71102 1.7168 6.43012 1.7168 12.2255V13.5502C1.7168 18.1589 4.70735 22.0777 8.83321 23.5128C8.66707 22.7401 8.584 21.9398 8.584 21.1118C8.584 14.1849 14.2605 8.55511 21.2108 8.55511H31.7054C33.5884 8.55511 35.139 7.03727 35.139 5.13307C35.139 3.25647 33.5884 1.71102 31.7054 1.71102H12.2668Z" fill="#FFDB00"/>
</svg>
