<svg width="124" height="34" viewBox="0 0 124 34" fill="none" xmlns="http://www.w3.org/2000/svg">
<g clip-path="url(#clip0_5480_14959)">
<path fill-rule="evenodd" clip-rule="evenodd" d="M32.0377 33.6684H21.2108C15.7835 33.6684 11.1316 30.2465 9.35932 25.4445C3.98741 24.1475 0 19.318 0 13.5502V12.2255C0 5.49182 5.51037 0 12.2668 0H31.7054C34.5575 0 36.8558 2.29056 36.8558 5.13307C36.8558 7.97558 34.5575 10.2937 31.7054 10.2937H21.2108C15.202 10.2937 10.3285 15.1508 10.3285 21.1118C10.3285 22.1053 10.4669 23.0436 10.7162 23.9543C11.2145 24.0279 11.7314 24.0647 12.2668 24.0647H32.0377C34.696 24.0647 36.8558 26.2448 36.8558 28.8666C36.8558 31.5159 34.696 33.6684 32.0377 33.6684ZM11.3807 25.7757C13.1252 29.4186 16.8634 31.9575 21.2108 31.9575H32.0377C33.7545 31.9575 35.139 30.5776 35.139 28.8666C35.139 27.1832 33.7545 25.8034 32.0377 25.8034H12.2668C11.9714 25.8034 11.6761 25.7942 11.3807 25.7757ZM12.2668 1.71102C6.45184 1.71102 1.7168 6.43012 1.7168 12.2255V13.5502C1.7168 18.1589 4.70735 22.0777 8.83321 23.5128C8.66707 22.7401 8.584 21.9398 8.584 21.1118C8.584 14.1849 14.2605 8.55511 21.2108 8.55511H31.7054C33.5884 8.55511 35.139 7.03727 35.139 5.13307C35.139 3.25647 33.5884 1.71102 31.7054 1.71102H12.2668Z" fill="#FFDB00"/>
<path d="M61.1683 8.44479V11.2321C60.4852 10.5698 59.7007 9.99942 58.8146 9.52107C57.4301 8.78515 56.0363 8.41718 54.6333 8.41718C52.4736 8.41718 50.6183 9.3279 49.0676 11.1493C48.2923 12.0508 47.72 13.0351 47.3508 14.1022C46.9631 15.1693 46.7693 16.3008 46.7693 17.4966C46.7693 19.9804 47.5446 22.1146 49.0953 23.8991C50.6275 25.6838 52.4919 26.576 54.6887 26.576C55.7225 26.576 56.784 26.3737 57.8732 25.969C58.9438 25.5458 60.0422 24.9018 61.1683 24.0371V26.7141C58.6946 28.0387 56.4517 28.701 54.4396 28.701C51.8366 28.701 49.5568 27.6984 47.6 25.693C45.4955 23.5404 44.4434 20.8451 44.4434 17.6071C44.4434 14.4794 45.4217 11.83 47.3784 9.65906C49.3722 7.46968 51.8366 6.375 54.7718 6.375C55.9163 6.375 57.0147 6.54978 58.0669 6.89935C59.1192 7.24891 60.1529 7.76405 61.1683 8.44479Z" fill="#FFDB00"/>
<path d="M139.919 8.44479V11.2321C139.236 10.5698 138.451 9.99942 137.565 9.52107C136.181 8.78515 134.788 8.41718 133.385 8.41718C131.225 8.41718 129.369 9.3279 127.819 11.1493C127.044 12.0508 126.472 13.0351 126.102 14.1022C125.714 15.1693 125.521 16.3008 125.521 17.4966C125.521 19.9804 126.295 22.1146 127.846 23.8991C129.379 25.6838 131.243 26.576 133.44 26.576C134.473 26.576 135.535 26.3737 136.625 25.969C137.695 25.5458 138.794 24.9018 139.919 24.0371V26.7141C137.446 28.0387 135.203 28.701 133.191 28.701C130.587 28.701 128.308 27.6984 126.352 25.693C124.246 23.5404 123.194 20.8451 123.194 17.6071C123.194 14.4794 124.173 11.83 126.129 9.65906C128.123 7.46968 130.587 6.375 133.523 6.375C134.668 6.375 135.766 6.54978 136.818 6.89935C137.87 7.24891 138.904 7.76405 139.919 8.44479Z" fill="#FFDB00"/>
<path d="M78.8066 6.73383H80.8004V28.3424H78.8066V6.73383Z" fill="#FFDB00"/>
<path fill-rule="evenodd" clip-rule="evenodd" d="M96.4454 20.3667H85.1755C85.1755 22.4825 85.6739 24.1016 86.6708 25.2238C87.6492 26.3277 88.9414 26.8796 90.5474 26.8796C91.7657 26.8796 92.938 26.4933 94.0641 25.7205C94.378 25.5182 94.7102 25.2699 95.0609 24.9755C95.4117 24.6627 95.7901 24.3039 96.1963 23.8991V26.3001C95.7532 26.6313 95.3379 26.9257 94.9502 27.1832C94.581 27.4224 94.2303 27.6248 93.8979 27.7904C92.7349 28.3975 91.572 28.701 90.409 28.701C88.3969 28.701 86.6892 28.0111 85.2862 26.6313C83.7725 25.1779 83.0156 23.2921 83.0156 20.9739C83.0156 18.8029 83.6987 16.9814 85.0647 15.5097C86.4492 14.0194 88.1568 13.2742 90.1874 13.2742C92.1627 13.2742 93.7319 13.9919 94.8948 15.4269C95.9285 16.7331 96.4454 18.3797 96.4454 20.3667ZM85.4524 18.6833H94.1195C93.8979 17.4506 93.418 16.5216 92.6796 15.896C91.9597 15.2889 91.0828 14.9853 90.049 14.9853C88.9045 14.9853 87.9353 15.3441 87.1415 16.0616C86.4031 16.7055 85.8401 17.5794 85.4524 18.6833Z" fill="#FFDB00"/>
<path d="M106.58 13.6054V15.5923C106.377 15.5187 106.211 15.4543 106.082 15.3992C105.952 15.3623 105.842 15.3348 105.749 15.3163C105.657 15.2979 105.555 15.2796 105.445 15.2612C105.352 15.2612 105.223 15.2612 105.057 15.2612C103.709 15.2612 102.602 15.9051 101.734 17.1929C100.996 18.3889 100.627 19.7227 100.627 21.1945V28.3422H98.6328V13.6054H100.46L100.599 16.1443C101.06 15.3715 101.494 14.8196 101.9 14.4885C102.731 13.8077 103.728 13.4674 104.891 13.4674C105.205 13.4674 105.491 13.4765 105.749 13.4949C106.026 13.5134 106.303 13.5501 106.58 13.6054Z" fill="#FFDB00"/>
<path fill-rule="evenodd" clip-rule="evenodd" d="M121.395 20.3667H110.125C110.125 22.4825 110.614 24.1016 111.592 25.2238C112.589 26.3277 113.891 26.8796 115.497 26.8796C116.715 26.8796 117.887 26.4933 119.014 25.7205C119.327 25.5182 119.66 25.2699 120.01 24.9755C120.361 24.6627 120.739 24.3039 121.145 23.8991V26.3001C120.702 26.6313 120.287 26.9257 119.9 27.1832C119.53 27.4224 119.18 27.6248 118.848 27.7904C117.684 28.3975 116.521 28.701 115.358 28.701C113.346 28.701 111.638 28.0111 110.235 26.6313C108.722 25.1779 107.965 23.2921 107.965 20.9739C107.965 18.8029 108.648 16.9814 110.014 15.5097C111.398 14.0194 113.106 13.2742 115.137 13.2742C117.112 13.2742 118.681 13.9919 119.844 15.4269C120.878 16.7331 121.395 18.3797 121.395 20.3667ZM110.401 18.6833H119.069C118.848 17.4506 118.367 16.5216 117.629 15.896C116.909 15.2889 116.031 14.9853 114.998 14.9853C113.854 14.9853 112.884 15.3441 112.091 16.0616C111.352 16.7055 110.789 17.5794 110.401 18.6833Z" fill="#FFDB00"/>
<path fill-rule="evenodd" clip-rule="evenodd" d="M76.6192 20.3667H65.3494C65.3494 22.4825 65.8478 24.1016 66.8446 25.2238C67.823 26.3277 69.1152 26.8796 70.7212 26.8796C71.9396 26.8796 73.1118 26.4933 74.2379 25.7205C74.5518 25.5182 74.884 25.2699 75.2347 24.9755C75.5855 24.6627 75.9639 24.3039 76.3701 23.8991V26.3001C75.9271 26.6313 75.5209 26.9257 75.1517 27.1832C74.7641 27.4224 74.4041 27.6248 74.0718 27.7904C72.9088 28.3975 71.7458 28.701 70.5828 28.701C68.5707 28.701 66.8631 28.0111 65.4601 26.6313C63.9464 25.1779 63.1895 23.2921 63.1895 20.9739C63.1895 18.8029 63.8725 16.9814 65.2385 15.5097C66.6231 14.0194 68.3307 13.2742 70.3613 13.2742C72.3365 13.2742 73.9057 13.9919 75.0687 15.4269C76.1024 16.7331 76.6192 18.3797 76.6192 20.3667ZM65.6262 18.6833H74.2933C74.0718 17.4506 73.6011 16.5216 72.8811 15.896C72.1427 15.2889 71.2566 14.9853 70.2228 14.9853C69.0783 14.9853 68.1091 15.3441 67.3154 16.0616C66.5769 16.7055 66.0139 17.5794 65.6262 18.6833Z" fill="#FFDB00"/>
<path d="M72.7421 11.7842H67.5918V10.1007H72.7421V11.7842Z" fill="#FFDB00"/>
</g>
<defs>
<clipPath id="clip0_5480_14959">
<rect width="123.25" height="34" fill="white"/>
</clipPath>
</defs>
</svg>
