<svg xmlns="http://www.w3.org/2000/svg" viewBox="0 0 204.54 54.22"><defs><style>.cls-1{fill:#891832;}.cls-2{fill:#969696;}.cls-3{fill:#901633;}</style></defs><g id="Camada_2" data-name="Camada 2"><g id="Camada_1-2" data-name="Camada 1"><polygon class="cls-1" points="204.54 54.22 56.24 54.22 56.24 44.15 57.13 44.15 57.13 53.33 203.64 53.33 203.64 0.89 57.13 0.89 57.13 13.92 56.24 13.92 56.24 0 204.54 0 204.54 54.22"></polygon><path class="cls-2" d="M77,32.59c0,1,0,2,.06,3,.06,1.62.17,2.86,1.46,3.64a3.56,3.56,0,0,0,2,.56,3,3,0,0,0,3-3.14c0-2.47-1.79-4-3.53-5.32l-5.33-4.15A32.09,32.09,0,0,1,72,24.91a9.91,9.91,0,0,1-3.37-7.73c.06-3.31.68-6.17,3.14-8.41,1.57-1.4,4-2.86,8.58-2.86,1,0,6.23-.17,9.31,3.14a8.35,8.35,0,0,1,2,3.59A28.7,28.7,0,0,1,92,19.25H83.43c0-3.47,0-5.1-1.41-6a3.15,3.15,0,0,0-1.73-.5,4.71,4.71,0,0,0-1.18.22,2.67,2.67,0,0,0-1.68,2.64,4.72,4.72,0,0,0,.33,1.62,8.3,8.3,0,0,0,3.14,3.42l6.62,5.27c.67.62,1.4,1.24,2.07,1.91a10.63,10.63,0,0,1,3,7.74A12.42,12.42,0,0,1,90.94,42a9.82,9.82,0,0,1-1.57,1.8c-1.63,1.57-3.87,2.91-8.64,2.91-1,0-1.85,0-2.74-.11-1.57-.17-6-.56-8.47-4.88-1.29-2.18-1.62-4.15-1.4-9.19Z"></path><path class="cls-2" d="M95.7,25.81A20.81,20.81,0,0,1,96,21.27a9.92,9.92,0,0,1,2.58-4.77c1.29-1.29,3.76-2.69,8.19-2.69a10.76,10.76,0,0,1,7,2.19,9.22,9.22,0,0,1,1.62,1.85c1.18,1.91,1.52,4.6,1.52,9.75,0,2.81-.06,5.5-.11,8.3-.12,4.66-1,6.45-2.7,8-1.34,1.35-3.64,2.69-8,2.69-1,0-6.39.06-8.85-3.87-1.69-2.58-1.41-5.27-1.46-8.35,0-1.07-.06-2.08-.06-3.2C95.65,29.45,95.7,27.6,95.7,25.81Zm8.58,12.39a4.17,4.17,0,0,0,.28,1.46,2,2,0,0,0,1.74,1.06c1.23,0,1.68-1.23,1.79-1.51s.06-.56.11-1V35.79c.06-1.85.06-3.81.06-5.72-.06-1.74-.11-3.47-.11-5.21,0-.56,0-1.18,0-1.74a8.36,8.36,0,0,0-.11-1.91,2.08,2.08,0,0,0-1.85-1.51,1.61,1.61,0,0,0-.95.28,2.9,2.9,0,0,0-1,2.58c0,1.57-.06,3-.06,4.43-.11,3,0,6,.06,9Z"></path><path class="cls-2" d="M121.6,14.71V13.2c.06-2.13.62-4.38,2.36-5.55s4.43-1.35,8.85-1.24l-.05,5.5c-2.36.11-2.69.45-2.8,2.8h3.14v6h-3V45.88H121.6V20.65h-2.24V14.71Z"></path><path class="cls-2" d="M136.35,14.65V8.09h8.46v6.68h2.81v5.94h-2.81V36.86c-.11,2.69.17,3.25,2.81,3.36l-.06,6.05c-1.35.12-2.69.28-4.09.28-.79,0-3.87.12-5.72-1.85A5.68,5.68,0,0,1,136.68,43a8.8,8.8,0,0,1-.39-3.42V20.6H134.1v-6Z"></path><path class="cls-2" d="M158.72,31.75c.05,1.52.05,3,.05,4.6s-.22,3,.79,3.87a1.94,1.94,0,0,0,1.4.5c2.35,0,2.13-3,2.13-3.3V34.33h8.24c.11,3.76.11,7-2.52,9.59a7.08,7.08,0,0,1-2,1.46,13.37,13.37,0,0,1-6.11,1.23c-4.32,0-8.75-1.79-10-6.39a14.39,14.39,0,0,1-.39-4.09V24a13.31,13.31,0,0,1,.56-4.43c.95-2.75,3.59-5.78,10-5.78s9,3.14,9.92,5.78a13.89,13.89,0,0,1,.45,3.7v8.46Zm4.42-6c0-3.14.28-5.21-1.17-6a1.74,1.74,0,0,0-1-.28c-.84,0-2.24.67-2.24,2.91,0,.51.05,1.07.05,1.63s0,1.17-.05,1.73Z"></path><path class="cls-2" d="M183.44,14.43l.05,3.53a9.22,9.22,0,0,1,1.13-1.68,7.76,7.76,0,0,1,5.6-2.36,5.42,5.42,0,0,1,3.59,1.24,6,6,0,0,1,1.35,1.46c1.12,1.68,1.17,3.47,1.23,5.49V46.05h-8.58V25.42a8.52,8.52,0,0,0-.28-2.86,1.91,1.91,0,0,0-1.68-1.23,1.72,1.72,0,0,0-1.29.61c-1,1-.95,2.41-.9,3.81V46H175V14.43Z"></path><path class="cls-3" d="M12,4.23a12.43,12.43,0,0,0-8.69,3Q0,10.18,0,15.9V34.23a11.35,11.35,0,0,0,3.23,8.54A12,12,0,0,0,12,45.9c3.67,0,6.59-1,8.74-3.13A11.32,11.32,0,0,0,24,34.23v-5.1h-9.3V35c0,.41,0,.79-.05,1.16a4.12,4.12,0,0,1-.3,1.17,2.2,2.2,0,0,1-.81,1,2.69,2.69,0,0,1-1.52.38,2.66,2.66,0,0,1-1.51-.38,2.2,2.2,0,0,1-.81-1,3.81,3.81,0,0,1-.3-1.17A10.78,10.78,0,0,1,9.3,35V15.09a12.78,12.78,0,0,1,0-1.32,3.28,3.28,0,0,1,.3-1.11,2.14,2.14,0,0,1,.81-.91A2.84,2.84,0,0,1,12,11.4a2.87,2.87,0,0,1,1.52.35,2.14,2.14,0,0,1,.81.91,3.53,3.53,0,0,1,.3,1.11c0,.37.05.81.05,1.32v4.54H24V15.9q0-5.72-3.29-8.69A12.41,12.41,0,0,0,12,4.23Z"></path><path class="cls-3" d="M38.65,14.05a8.12,8.12,0,0,0-1.09,1.67c-.29.59-.62,1.37-1,2.35a5.25,5.25,0,0,1-.25.6h-.1V13H28V45.25h8.69V26.91a4.64,4.64,0,0,1,.88-3,3.55,3.55,0,0,1,2.95-1.11h2V12.31a5,5,0,0,0-2.28.48A4.91,4.91,0,0,0,38.65,14.05Z"></path><path class="cls-3" d="M65.65,18.32A8.1,8.1,0,0,0,64,15.39a8.45,8.45,0,0,0-3.31-2.22,13.93,13.93,0,0,0-5.2-.86,14,14,0,0,0-5.21.86A8.48,8.48,0,0,0,47,15.39a8,8,0,0,0-1.67,2.93,10.85,10.85,0,0,0-.48,3.18V36.71a10.75,10.75,0,0,0,.48,3.18A7.88,7.88,0,0,0,47,42.82,8.48,8.48,0,0,0,50.26,45a13.79,13.79,0,0,0,5.21.86,13.73,13.73,0,0,0,5.2-.86A8.45,8.45,0,0,0,64,42.82a8,8,0,0,0,1.67-2.93,10.75,10.75,0,0,0,.48-3.18V21.5A10.85,10.85,0,0,0,65.65,18.32ZM55.47,28a.73.73,0,1,1,.73-.73A.73.73,0,0,1,55.47,28Zm1-3.93a1,1,0,1,1-2,0V18.91a1,1,0,1,1,2,0Z"></path></g></g></svg>